<svg width="233" height="64" viewBox="0 0 233 64" fill="none" xmlns="http://www.w3.org/2000/svg">
<path d="M31.97 15.84L36.17 15.75C36.33 15.75 36.41 15.92 36.41 16.26C36.41 16.6 36.33 16.77 36.17 16.77H34.88C34.38 16.77 34.05 16.87 33.89 17.07C33.73 17.25 33.65 17.61 33.65 18.15V32.04C33.65 35.32 33.38 37.65 32.84 39.03C32.2 40.55 31.24 41.79 29.96 42.75C28.68 43.71 27.23 44.19 25.61 44.19C25.09 44.19 24.7 44.08 24.44 43.86C24.16 43.64 24.02 43.39 24.02 43.11C24.02 42.35 24.46 41.8 25.34 41.46C26.18 41.98 27.14 42.24 28.22 42.24C28.86 42.24 29.34 41.93 29.66 41.31C30.26 40.07 30.56 37.07 30.56 32.31V19.44C30.56 17.68 30.35 16.8 29.93 16.8H28.19C28.03 16.8 27.95 16.64 27.95 16.32C27.95 15.98 28.03 15.81 28.19 15.81L31.97 15.84ZM50.4863 21.57L52.9463 21.51C53.0863 21.51 53.1563 21.66 53.1563 21.96C53.1563 22.24 53.0863 22.38 52.9463 22.38H52.3163C51.9563 22.38 51.7263 22.45 51.6263 22.59C51.5263 22.71 51.4563 22.97 51.4163 23.37C51.2563 26.89 51.1763 29.3 51.1763 30.6C51.1763 32.4 50.5963 33.82 49.4363 34.86C48.2963 35.88 46.9463 36.39 45.3863 36.39C43.8263 36.39 42.4563 35.91 41.2763 34.95C40.1163 33.99 39.5363 32.64 39.5363 30.9V24.66C39.5363 23.18 39.3163 22.44 38.8763 22.44H37.8263C37.6663 22.44 37.5863 22.29 37.5863 21.99C37.5863 21.67 37.6663 21.51 37.8263 21.51L40.7363 21.57L43.8863 21.51C44.0463 21.51 44.1263 21.67 44.1263 21.99C44.1263 22.29 44.0463 22.44 43.8863 22.44H42.9563C42.5963 22.44 42.3563 22.51 42.2363 22.65C42.1363 22.79 42.0863 23.05 42.0863 23.43V30.3C42.0863 31.82 42.4363 32.94 43.1363 33.66C43.8563 34.38 44.8063 34.74 45.9863 34.74C47.1663 34.74 48.0763 34.34 48.7163 33.54C49.3763 32.72 49.7063 31.49 49.7063 29.85C49.7063 27.53 49.6763 25.72 49.6163 24.42C49.5763 23.1 49.4163 22.44 49.1363 22.44H47.9363C47.8163 22.44 47.7563 22.29 47.7563 21.99C47.7563 21.69 47.8163 21.54 47.9363 21.54L50.4863 21.57ZM54.6282 21.51L56.9982 21.57C57.2182 21.57 57.4082 21.57 57.5682 21.57L60.6882 21.51C60.8282 21.51 60.8982 21.66 60.8982 21.96C60.8982 22.24 60.8182 22.38 60.6582 22.38H59.2782C59.0182 22.38 58.8882 22.54 58.8882 22.86V32.79C58.8882 34.29 59.0882 35.04 59.4882 35.04H60.2682C62.4682 35 63.9882 34.69 64.8282 34.11L64.9782 32.94C65.0182 32.82 65.1182 32.76 65.2782 32.76C65.4582 32.76 65.5782 32.76 65.6382 32.76C65.7582 32.8 65.8182 32.86 65.8182 32.94C65.6982 33.78 65.6382 34.96 65.6382 36.48C65.6382 36.58 65.4982 36.63 65.2182 36.63C64.9582 36.63 64.8282 36.58 64.8282 36.48V36H59.6682L54.5682 36.06C54.4282 36.06 54.3582 35.91 54.3582 35.61C54.3582 35.31 54.4182 35.16 54.5382 35.16H55.8882C56.1082 35.16 56.2382 35.12 56.2782 35.04C56.3182 34.94 56.3382 34.69 56.3382 34.29V24.84C56.3382 23.24 56.1382 22.44 55.7382 22.44H54.6582C54.4182 22.44 54.2982 22.29 54.2982 21.99C54.2982 21.67 54.4082 21.51 54.6282 21.51ZM67.8118 21.51L70.1818 21.57C70.4018 21.57 70.5918 21.57 70.7518 21.57L73.8718 21.51C74.0118 21.51 74.0818 21.66 74.0818 21.96C74.0818 22.24 74.0018 22.38 73.8418 22.38H72.4618C72.2018 22.38 72.0718 22.54 72.0718 22.86V32.79C72.0718 34.31 72.2718 35.07 72.6718 35.07H74.1718C74.3318 35.07 74.4118 35.23 74.4118 35.55C74.4118 35.85 74.3518 36 74.2318 36L70.7518 35.97L67.7518 36.06C67.6118 36.06 67.5418 35.91 67.5418 35.61C67.5418 35.31 67.6018 35.16 67.7218 35.16H69.0718C69.2918 35.16 69.4218 35.12 69.4618 35.04C69.5018 34.94 69.5218 34.69 69.5218 34.29V24.84C69.5218 23.24 69.3218 22.44 68.9218 22.44H67.8418C67.6018 22.44 67.4818 22.29 67.4818 21.99C67.4818 21.67 67.5918 21.51 67.8118 21.51ZM77.011 21.51L80.071 21.57H86.281V21.09C86.281 20.97 86.411 20.91 86.671 20.91C86.951 20.91 87.091 20.97 87.091 21.09C87.091 22.67 87.161 23.8 87.301 24.48C87.341 24.6 87.231 24.66 86.971 24.66C86.631 24.66 86.461 24.6 86.461 24.48C86.181 23.56 85.911 23.04 85.651 22.92C84.811 22.62 83.591 22.47 81.991 22.47C81.711 22.49 81.521 22.57 81.421 22.71C81.321 22.85 81.271 23.1 81.271 23.46V28.38C83.691 28.3 85.021 28.19 85.261 28.05L85.471 26.79C85.511 26.69 85.651 26.64 85.891 26.64C86.151 26.64 86.281 26.71 86.281 26.85C86.201 27.43 86.161 28.08 86.161 28.8C86.161 29.5 86.201 30.14 86.281 30.72C86.281 30.84 86.141 30.9 85.861 30.9C85.601 30.9 85.471 30.86 85.471 30.78L85.231 29.49C84.991 29.35 83.671 29.24 81.271 29.16V32.79C81.271 34.29 81.471 35.04 81.871 35.04H82.831C85.031 35 86.551 34.69 87.391 34.11L87.541 32.94C87.581 32.82 87.681 32.76 87.841 32.76C88.021 32.76 88.141 32.76 88.201 32.76C88.321 32.8 88.381 32.86 88.381 32.94C88.261 33.78 88.201 34.96 88.201 36.48C88.201 36.58 88.061 36.63 87.781 36.63C87.521 36.63 87.391 36.58 87.391 36.48V36H82.051L76.951 36.06C76.811 36.06 76.741 35.91 76.741 35.61C76.741 35.31 76.801 35.16 76.921 35.16H78.271C78.491 35.16 78.621 35.12 78.661 35.04C78.701 34.94 78.721 34.69 78.721 34.29V24.84C78.721 23.24 78.521 22.44 78.121 22.44H77.041C76.801 22.44 76.681 22.29 76.681 21.99C76.681 21.67 76.791 21.51 77.011 21.51ZM104.015 24.72C104.015 24.84 103.875 24.9 103.595 24.9C103.335 24.9 103.205 24.83 103.205 24.69C103.005 23.71 102.705 23.17 102.305 23.07C101.585 22.91 100.495 22.81 99.0355 22.77H98.4655C98.2655 22.79 98.1655 22.95 98.1655 23.25V32.79C98.1655 34.31 98.3655 35.07 98.7655 35.07H100.265C100.425 35.07 100.505 35.23 100.505 35.55C100.505 35.85 100.445 36 100.325 36L96.8455 35.97L93.8455 36.06C93.7055 36.06 93.6355 35.91 93.6355 35.61C93.6355 35.31 93.6955 35.16 93.8155 35.16H95.1655C95.3855 35.16 95.5155 35.12 95.5555 35.04C95.5955 34.94 95.6155 34.69 95.6155 34.29V25.17C95.6155 23.67 95.4355 22.87 95.0755 22.77C93.4555 22.77 92.2455 22.87 91.4455 23.07C91.0455 23.17 90.7455 23.71 90.5455 24.69C90.5455 24.83 90.4055 24.9 90.1255 24.9C89.8655 24.9 89.7355 24.84 89.7355 24.72L89.8855 21.12C89.8855 21 90.0155 20.94 90.2755 20.94C90.5555 20.94 90.6955 21 90.6955 21.12V21.51C90.6955 21.51 92.0055 21.53 94.6255 21.57H96.8455C99.8855 21.57 101.925 21.55 102.965 21.51H103.055V21.12C103.055 21 103.185 20.94 103.445 20.94C103.725 20.94 103.865 21 103.865 21.12L104.015 24.72ZM119.543 24.72C119.543 24.84 119.403 24.9 119.123 24.9C118.863 24.9 118.733 24.83 118.733 24.69C118.533 23.71 118.233 23.17 117.833 23.07C117.113 22.91 116.023 22.81 114.563 22.77H113.993C113.793 22.79 113.693 22.95 113.693 23.25V32.79C113.693 34.31 113.893 35.07 114.293 35.07H115.793C115.953 35.07 116.033 35.23 116.033 35.55C116.033 35.85 115.973 36 115.853 36L112.373 35.97L109.373 36.06C109.233 36.06 109.163 35.91 109.163 35.61C109.163 35.31 109.223 35.16 109.343 35.16H110.693C110.913 35.16 111.043 35.12 111.083 35.04C111.123 34.94 111.143 34.69 111.143 34.29V25.17C111.143 23.67 110.963 22.87 110.603 22.77C108.983 22.77 107.773 22.87 106.973 23.07C106.573 23.17 106.273 23.71 106.073 24.69C106.073 24.83 105.933 24.9 105.653 24.9C105.393 24.9 105.263 24.84 105.263 24.72L105.413 21.12C105.413 21 105.543 20.94 105.803 20.94C106.083 20.94 106.223 21 106.223 21.12V21.51C106.223 21.51 107.533 21.53 110.153 21.57H112.373C115.413 21.57 117.453 21.55 118.493 21.51H118.583V21.12C118.583 21 118.713 20.94 118.973 20.94C119.253 20.94 119.393 21 119.393 21.12L119.543 24.72ZM121.63 21.51L124.69 21.57H130.9V21.09C130.9 20.97 131.03 20.91 131.29 20.91C131.57 20.91 131.71 20.97 131.71 21.09C131.71 22.67 131.78 23.8 131.92 24.48C131.96 24.6 131.85 24.66 131.59 24.66C131.25 24.66 131.08 24.6 131.08 24.48C130.8 23.56 130.53 23.04 130.27 22.92C129.43 22.62 128.21 22.47 126.61 22.47C126.33 22.49 126.14 22.57 126.04 22.71C125.94 22.85 125.89 23.1 125.89 23.46V28.38C128.31 28.3 129.64 28.19 129.88 28.05L130.09 26.79C130.13 26.69 130.27 26.64 130.51 26.64C130.77 26.64 130.9 26.71 130.9 26.85C130.82 27.43 130.78 28.08 130.78 28.8C130.78 29.5 130.82 30.14 130.9 30.72C130.9 30.84 130.76 30.9 130.48 30.9C130.22 30.9 130.09 30.86 130.09 30.78L129.85 29.49C129.61 29.35 128.29 29.24 125.89 29.16V32.79C125.89 34.29 126.09 35.04 126.49 35.04H127.45C129.65 35 131.17 34.69 132.01 34.11L132.16 32.94C132.2 32.82 132.3 32.76 132.46 32.76C132.64 32.76 132.76 32.76 132.82 32.76C132.94 32.8 133 32.86 133 32.94C132.88 33.78 132.82 34.96 132.82 36.48C132.82 36.58 132.68 36.63 132.4 36.63C132.14 36.63 132.01 36.58 132.01 36.48V36H126.67L121.57 36.06C121.43 36.06 121.36 35.91 121.36 35.61C121.36 35.31 121.42 35.16 121.54 35.16H122.89C123.11 35.16 123.24 35.12 123.28 35.04C123.32 34.94 123.34 34.69 123.34 34.29V24.84C123.34 23.24 123.14 22.44 122.74 22.44H121.66C121.42 22.44 121.3 22.29 121.3 21.99C121.3 21.67 121.41 21.51 121.63 21.51ZM135.634 21.51L138.694 21.57H144.904V21.09C144.904 20.97 145.034 20.91 145.294 20.91C145.574 20.91 145.714 20.97 145.714 21.09C145.714 22.67 145.784 23.8 145.924 24.48C145.964 24.6 145.854 24.66 145.594 24.66C145.254 24.66 145.084 24.6 145.084 24.48C144.804 23.56 144.534 23.04 144.274 22.92C143.434 22.62 142.214 22.47 140.614 22.47C140.334 22.49 140.144 22.57 140.044 22.71C139.944 22.85 139.894 23.1 139.894 23.46V28.38C142.314 28.3 143.644 28.19 143.884 28.05L144.094 26.79C144.134 26.69 144.274 26.64 144.514 26.64C144.774 26.64 144.904 26.71 144.904 26.85C144.824 27.43 144.784 28.08 144.784 28.8C144.784 29.5 144.824 30.14 144.904 30.72C144.904 30.84 144.764 30.9 144.484 30.9C144.224 30.9 144.094 30.86 144.094 30.78L143.854 29.49C143.614 29.35 142.294 29.24 139.894 29.16V32.79C139.894 34.29 140.094 35.04 140.494 35.04H141.454C143.654 35 145.174 34.69 146.014 34.11L146.164 32.94C146.204 32.82 146.304 32.76 146.464 32.76C146.644 32.76 146.764 32.76 146.824 32.76C146.944 32.8 147.004 32.86 147.004 32.94C146.884 33.78 146.824 34.96 146.824 36.48C146.824 36.58 146.684 36.63 146.404 36.63C146.144 36.63 146.014 36.58 146.014 36.48V36H140.674L135.574 36.06C135.434 36.06 135.364 35.91 135.364 35.61C135.364 35.31 135.424 35.16 135.544 35.16H136.894C137.114 35.16 137.244 35.12 137.284 35.04C137.324 34.94 137.344 34.69 137.344 34.29V24.84C137.344 23.24 137.144 22.44 136.744 22.44H135.664C135.424 22.44 135.304 22.29 135.304 21.99C135.304 21.67 135.414 21.51 135.634 21.51ZM153.778 34.62C153.778 35.1 153.608 35.52 153.268 35.88C152.948 36.22 152.548 36.39 152.068 36.39C151.608 36.39 151.208 36.23 150.868 35.91C150.528 35.57 150.358 35.17 150.358 34.71C150.358 34.25 150.508 33.85 150.808 33.51C151.128 33.15 151.518 32.97 151.978 32.97C152.458 32.97 152.878 33.13 153.238 33.45C153.598 33.75 153.778 34.14 153.778 34.62ZM161.931 15.84L166.131 15.75C166.291 15.75 166.371 15.92 166.371 16.26C166.371 16.6 166.291 16.77 166.131 16.77H164.841C164.341 16.77 164.011 16.87 163.851 17.07C163.691 17.25 163.611 17.61 163.611 18.15V32.04C163.611 35.32 163.341 37.65 162.801 39.03C162.161 40.55 161.201 41.79 159.921 42.75C158.641 43.71 157.191 44.19 155.571 44.19C155.051 44.19 154.661 44.08 154.401 43.86C154.121 43.64 153.981 43.39 153.981 43.11C153.981 42.35 154.421 41.8 155.301 41.46C156.141 41.98 157.101 42.24 158.181 42.24C158.821 42.24 159.301 41.93 159.621 41.31C160.221 40.07 160.521 37.07 160.521 32.31V19.44C160.521 17.68 160.311 16.8 159.891 16.8H158.151C157.991 16.8 157.911 16.64 157.911 16.32C157.911 15.98 157.991 15.81 158.151 15.81L161.931 15.84ZM180.447 21.57L182.907 21.51C183.047 21.51 183.117 21.66 183.117 21.96C183.117 22.24 183.047 22.38 182.907 22.38H182.277C181.917 22.38 181.687 22.45 181.587 22.59C181.487 22.71 181.417 22.97 181.377 23.37C181.217 26.89 181.137 29.3 181.137 30.6C181.137 32.4 180.557 33.82 179.397 34.86C178.257 35.88 176.907 36.39 175.347 36.39C173.787 36.39 172.417 35.91 171.237 34.95C170.077 33.99 169.497 32.64 169.497 30.9V24.66C169.497 23.18 169.277 22.44 168.837 22.44H167.787C167.627 22.44 167.547 22.29 167.547 21.99C167.547 21.67 167.627 21.51 167.787 21.51L170.697 21.57L173.847 21.51C174.007 21.51 174.087 21.67 174.087 21.99C174.087 22.29 174.007 22.44 173.847 22.44H172.917C172.557 22.44 172.317 22.51 172.197 22.65C172.097 22.79 172.047 23.05 172.047 23.43V30.3C172.047 31.82 172.397 32.94 173.097 33.66C173.817 34.38 174.767 34.74 175.947 34.74C177.127 34.74 178.037 34.34 178.677 33.54C179.337 32.72 179.667 31.49 179.667 29.85C179.667 27.53 179.637 25.72 179.577 24.42C179.537 23.1 179.377 22.44 179.097 22.44H177.897C177.777 22.44 177.717 22.29 177.717 21.99C177.717 21.69 177.777 21.54 177.897 21.54L180.447 21.57ZM184.589 21.51L186.959 21.57C187.179 21.57 187.369 21.57 187.529 21.57L190.649 21.51C190.789 21.51 190.859 21.66 190.859 21.96C190.859 22.24 190.779 22.38 190.619 22.38H189.239C188.979 22.38 188.849 22.54 188.849 22.86V32.79C188.849 34.29 189.049 35.04 189.449 35.04H190.229C192.429 35 193.949 34.69 194.789 34.11L194.939 32.94C194.979 32.82 195.079 32.76 195.239 32.76C195.419 32.76 195.539 32.76 195.599 32.76C195.719 32.8 195.779 32.86 195.779 32.94C195.659 33.78 195.599 34.96 195.599 36.48C195.599 36.58 195.459 36.63 195.179 36.63C194.919 36.63 194.789 36.58 194.789 36.48V36H189.629L184.529 36.06C184.389 36.06 184.319 35.91 184.319 35.61C184.319 35.31 184.379 35.16 184.499 35.16H185.849C186.069 35.16 186.199 35.12 186.239 35.04C186.279 34.94 186.299 34.69 186.299 34.29V24.84C186.299 23.24 186.099 22.44 185.699 22.44H184.619C184.379 22.44 184.259 22.29 184.259 21.99C184.259 21.67 184.369 21.51 184.589 21.51ZM197.773 21.51L200.143 21.57C200.363 21.57 200.553 21.57 200.713 21.57L203.833 21.51C203.973 21.51 204.043 21.66 204.043 21.96C204.043 22.24 203.963 22.38 203.803 22.38H202.423C202.163 22.38 202.033 22.54 202.033 22.86V32.79C202.033 34.31 202.233 35.07 202.633 35.07H204.133C204.293 35.07 204.373 35.23 204.373 35.55C204.373 35.85 204.313 36 204.193 36L200.713 35.97L197.713 36.06C197.573 36.06 197.503 35.91 197.503 35.61C197.503 35.31 197.563 35.16 197.683 35.16H199.033C199.253 35.16 199.383 35.12 199.423 35.04C199.463 34.94 199.483 34.69 199.483 34.29V24.84C199.483 23.24 199.283 22.44 198.883 22.44H197.803C197.563 22.44 197.443 22.29 197.443 21.99C197.443 21.67 197.553 21.51 197.773 21.51ZM207.002 36L204.632 36.06C204.492 36.06 204.422 35.93 204.422 35.67C204.422 35.41 204.492 35.28 204.632 35.28H205.592C205.812 35.28 205.972 35.19 206.072 35.01C206.532 34.25 207.452 32.23 208.832 28.95C210.212 25.65 211.202 23.15 211.802 21.45C211.882 21.27 212.072 21.18 212.372 21.18C212.692 21.18 212.892 21.28 212.972 21.48C213.212 22.48 213.912 24.37 215.072 27.15C216.252 29.93 217.282 32.25 218.162 34.11C218.402 34.59 218.622 34.9 218.822 35.04C219.022 35.18 219.332 35.25 219.752 35.25C219.872 35.25 219.932 35.39 219.932 35.67C219.932 35.93 219.882 36.06 219.782 36.06L216.902 36L213.662 36.06C213.542 36.06 213.482 35.93 213.482 35.67C213.482 35.41 213.542 35.28 213.662 35.28H215.102C215.322 35.28 215.432 35.19 215.432 35.01C215.432 34.99 214.872 33.45 213.752 30.39H209.582C208.602 32.81 208.112 34.23 208.112 34.65C208.112 35.05 208.232 35.25 208.472 35.25H209.702C209.862 35.25 209.942 35.39 209.942 35.67C209.942 35.93 209.882 36.06 209.762 36.06L207.002 36ZM213.362 29.37C213.302 29.19 212.782 27.67 211.802 24.81H211.712C211.232 26.19 210.662 27.71 210.002 29.37H213.362Z" fill="#676B90"/>
<path opacity="0.2" d="M31.433 1.75L31 1L30.567 1.75L3.7202 48.25L3.28719 49H4.15321H57.8468H58.7128L58.2798 48.25L31.433 1.75Z" stroke="#676B90"/>
</svg>
